<?xml version="1.0" encoding="utf-8"?>
<!-- Generator: Adobe Illustrator 27.7.0, SVG Export Plug-In . SVG Version: 6.00 Build 0)  -->
<svg version="1.1" id="Capa_1" xmlns="http://www.w3.org/2000/svg" xmlns:xlink="http://www.w3.org/1999/xlink" x="0px" y="0px"
	 viewBox="0 0 500 500" style="enable-background:new 0 0 500 500;" xml:space="preserve">
<style type="text/css">
	.st0{opacity:0.85;fill:url(#SVGID_1_);}
	.st1{opacity:0.85;fill:url(#SVGID_00000045603823320584682970000007496408873362356897_);}
	.st2{opacity:0.85;fill:url(#SVGID_00000039822009314186345710000009030477004085729161_);}
</style>
<linearGradient id="SVGID_1_" gradientUnits="userSpaceOnUse" x1="13.29" y1="131.9844" x2="491.7143" y2="131.9844">
	<stop  offset="1.100000e-07" style="stop-color:#079046"/>
	<stop  offset="1" style="stop-color:#00E872"/>
</linearGradient>
<path class="st0" d="M455.5,168.3H49.5c-20,0-36.2-16.2-36.2-36.2V132c0-20,16.2-36.2,36.2-36.2h405.9c20,0,36.2,16.2,36.2,36.2v0.1
	C491.7,152,475.5,168.3,455.5,168.3z"/>
<linearGradient id="SVGID_00000034811294431082659320000009168275677755789237_" gradientUnits="userSpaceOnUse" x1="13.29" y1="263.5875" x2="491.7143" y2="263.5875">
	<stop  offset="1.100000e-07" style="stop-color:#079046"/>
	<stop  offset="1" style="stop-color:#00E872"/>
</linearGradient>
<path style="opacity:0.85;fill:url(#SVGID_00000034811294431082659320000009168275677755789237_);" d="M455.5,299.9H49.5
	c-20,0-36.2-16.2-36.2-36.2v-0.1c0-20,16.2-36.2,36.2-36.2h405.9c20,0,36.2,16.2,36.2,36.2v0.1C491.7,283.6,475.5,299.9,455.5,299.9
	z"/>
<linearGradient id="SVGID_00000175319174717226296340000013082424957913727370_" gradientUnits="userSpaceOnUse" x1="13.29" y1="395.1906" x2="491.7143" y2="395.1906">
	<stop  offset="1.100000e-07" style="stop-color:#079046"/>
	<stop  offset="1" style="stop-color:#00E872"/>
</linearGradient>
<path style="opacity:0.85;fill:url(#SVGID_00000175319174717226296340000013082424957913727370_);" d="M455.5,431.5H49.5
	c-20,0-36.2-16.2-36.2-36.2v-0.1c0-20,16.2-36.2,36.2-36.2h405.9c20,0,36.2,16.2,36.2,36.2v0.1C491.7,415.2,475.5,431.5,455.5,431.5
	z"/>
</svg>
